<?xml version="1.0" encoding="UTF-8" standalone="no"?>
<!-- Created with Inkscape (http://www.inkscape.org/) -->

<svg
   width="210mm"
   height="175mm"
   viewBox="0 0 793.70081 661.418"
   version="1.1"
   id="svg1"
   inkscape:version="1.3 (0e150ed6c4, 2023-07-21)"
   sodipodi:docname="logo2.svg"
   xmlns:inkscape="http://www.inkscape.org/namespaces/inkscape"
   xmlns:sodipodi="http://sodipodi.sourceforge.net/DTD/sodipodi-0.dtd"
   xmlns="http://www.w3.org/2000/svg"
   xmlns:svg="http://www.w3.org/2000/svg">
  <sodipodi:namedview
     id="namedview1"
     pagecolor="#ffffff"
     bordercolor="#000000"
     borderopacity="0.25"
     inkscape:showpageshadow="2"
     inkscape:pageopacity="0.0"
     inkscape:pagecheckerboard="0"
     inkscape:deskcolor="#d1d1d1"
     inkscape:document-units="mm"
     inkscape:zoom="0.45344416"
     inkscape:cx="396.96177"
     inkscape:cy="371.60033"
     inkscape:window-width="1366"
     inkscape:window-height="705"
     inkscape:window-x="-8"
     inkscape:window-y="-8"
     inkscape:window-maximized="1"
     inkscape:current-layer="layer1" />
  <defs
     id="defs1" />
  <g
     inkscape:label="Capa 1"
     inkscape:groupmode="layer"
     id="layer1">
    <g
       id="g1"
       transform="matrix(5.1922144,0,0,5.1922144,-37.729928,-2888.3864)">
      <path
         style="fill:#fee26a;fill-opacity:1;stroke-width:0.830869"
         d="M 65.543853,569.02636 58.214441,625.8292 79.515519,615.06415 V 562.84219 Z"
         id="path1" />
      <path
         style="fill:#fee26a;fill-opacity:1;stroke-width:0.830869"
         d="m 47.907495,630.86815 1.717834,-2.7485 3.321131,-23.0189 c 0,0 -0.687141,-3.09209 1.030677,-3.43565 1.717833,-0.34356 1.603314,1.94687 1.603314,1.94687 0,0 0,1.25974 -1.030715,2.17591 -1.030678,0.91618 -3.092055,22.78985 -3.092055,22.78985 l 7.100357,-3.09209 0.916158,4.00825 -3.664706,1.83234 z"
         id="path2" />
      <path
         style="fill:#fee26a;fill-opacity:1;stroke-width:0.830869"
         d="m 80.546234,628.23417 -0.687156,-15.34593 15.6895,7.90201 -0.229039,-2.63401 -16.262099,-8.36009 0.572637,-2.97757 15.116863,8.24557 -0.458078,-3.20661 -15.002344,-7.21488 v -3.09208 l 14.931099,8.62048 v -3.467 L 79.22733,598.04949 v -2.22501 l 14.360883,8.29125 v -3.02324 l -14.131201,-8.15866 v -1.5757 l 13.940675,8.04865 v -4.04039 l -14.22584,-7.10035 0.114519,-2.06139 13.284549,6.98583 -0.11452,-2.17592 -13.399068,-6.64227 0.229039,-2.06139 12.940952,6.7568 v -2.06141 l -14.086148,-7.44391 1.145196,-1.14522 12.482873,6.41322 v -2.40495 l -13.513588,-6.7568 0.34356,-2.06139 12.826469,6.75679 -0.229039,-2.29044 -12.139314,-5.84061 v -2.29044 l 11.681235,5.95513 -0.11452,-2.51948 -12.024831,-5.84061 0.458116,-2.17591 11.337638,6.06966 v -2.06139 l -10.879559,-5.61158 -0.11452,-1.6033 11.452158,5.268 7.78749,56.68832 1.946876,-0.229 -0.45808,-5.49706 1.14519,0.11452 0.9162,5.26801 1.37427,-0.22904 -0.80167,-6.75679 -3.550187,-0.11452 -3.09207,-17.52185 13.628067,16.60568 8.13109,2.86303 -3.66471,0.22904 c 0,0 -2.86306,2.06139 -4.5809,1.25975 -1.71783,-0.80166 -0.11452,2.17591 -0.11452,2.17591 l 2.97759,4.35183 3.77919,4.69538 -1.83235,1.37426 z"
         id="path3" />
      <path
         style="fill:#fee26a;fill-opacity:1;stroke-width:2.20199"
         id="path4"
         sodipodi:type="arc"
         sodipodi:cx="147.485"
         sodipodi:cy="-570.99615"
         sodipodi:rx="7.541791"
         sodipodi:ry="5.7342477"
         sodipodi:start="6.1608311"
         sodipodi:end="3.8366656"
         sodipodi:arc-type="slice"
         d="m 154.97041,-571.69601 a 7.541791,5.7342477 0 0 1 -4.73375,6.03881 7.541791,5.7342477 0 0 1 -8.86954,-1.98572 7.541791,5.7342477 0 0 1 0.32573,-7.02568 l 5.79215,3.67245 z"
         transform="matrix(-0.96705252,0.25457695,-0.38878543,-0.92132833,0,0)" />
      <path
         style="fill:#fee26a;fill-opacity:1;stroke-width:0.830869"
         d="m 18.211179,641.16746 c 0,0 71.497462,-17.2231 129.890601,1.61955 0,0 -58.393139,-33.6547 -129.890601,-1.61955 z"
         id="path11"
         sodipodi:nodetypes="ccc" />
      <text
         xml:space="preserve"
         style="font-style:normal;font-variant:normal;font-weight:normal;font-stretch:normal;font-size:27.4091px;font-family:'Century Gothic';-inkscape-font-specification:'Century Gothic';fill:#fee26a;fill-opacity:1;stroke-width:2.28409"
         x="7.5144463"
         y="664.18347"
         id="text11"><tspan
           sodipodi:role="line"
           id="tspan11"
           style="font-style:normal;font-variant:normal;font-weight:normal;font-stretch:normal;font-family:'Century Gothic';-inkscape-font-specification:'Century Gothic';fill:#fee26a;fill-opacity:1;stroke-width:2.28409"
           x="7.5144463"
           y="664.18347">CAAMAÑO</tspan></text>
      <text
         xml:space="preserve"
         style="font-style:normal;font-variant:normal;font-weight:normal;font-stretch:normal;font-size:17.9965px;font-family:'Century Gothic';-inkscape-font-specification:'Century Gothic';fill:#fee26a;fill-opacity:1;stroke-width:1.49971"
         x="34.43568"
         y="680.24615"
         id="text12"><tspan
           sodipodi:role="line"
           id="tspan12"
           style="fill:#fee26a;fill-opacity:1;stroke-width:1.49971"
           x="34.43568"
           y="680.24615">INMUEBLES</tspan></text>
    </g>
  </g>
</svg>
