<?xml version="1.0" encoding="UTF-8" standalone="no"?>
<!-- Created with Inkscape (http://www.inkscape.org/) -->

<svg
   width="512"
   height="351"
   viewBox="0 0 512 351"
   version="1.1"
   id="svg1"
   inkscape:version="1.3 (0e150ed6c4, 2023-07-21)"
   sodipodi:docname="logo.svg"
   xmlns:inkscape="http://www.inkscape.org/namespaces/inkscape"
   xmlns:sodipodi="http://sodipodi.sourceforge.net/DTD/sodipodi-0.dtd"
   xmlns="http://www.w3.org/2000/svg"
   xmlns:svg="http://www.w3.org/2000/svg">
  <sodipodi:namedview
     id="namedview1"
     pagecolor="#ffffff"
     bordercolor="#000000"
     borderopacity="0.25"
     inkscape:showpageshadow="2"
     inkscape:pageopacity="0.0"
     inkscape:pagecheckerboard="0"
     inkscape:deskcolor="#d1d1d1"
     inkscape:document-units="px"
     inkscape:zoom="0.49707031"
     inkscape:cx="378.21611"
     inkscape:cy="433.54027"
     inkscape:window-width="1366"
     inkscape:window-height="705"
     inkscape:window-x="-8"
     inkscape:window-y="-8"
     inkscape:window-maximized="1"
     inkscape:current-layer="g2" />
  <defs
     id="defs1" />
  <g
     inkscape:label="Capa 1"
     inkscape:groupmode="layer"
     id="layer1">
    <g
       id="g2"
       transform="matrix(35.146529,0,0,35.146529,1177.5835,-668.71474)">
      <path
         style="fill:#ffe26a;fill-opacity:1;stroke-width:0.0921043"
         d="m -28.090526,20.536884 -0.812486,6.29677 2.361288,-1.193338 v -5.788967 z"
         id="path1-7-1" />
      <path
         style="fill:#fee26a;fill-opacity:1;stroke-width:0.0921043"
         d="m -30.045571,27.392239 0.190426,-0.30468 0.368159,-2.551717 c 0,0 -0.07617,-0.342766 0.114255,-0.380855 0.190427,-0.03808 0.177732,0.215817 0.177732,0.215817 0,0 0,0.139648 -0.114256,0.241207 -0.114256,0.101563 -0.342767,2.526328 -0.342767,2.526328 l 0.787096,-0.34277 0.10156,0.444328 -0.406243,0.203122 z"
         id="path2-0-1" />
      <path
         style="fill:#fee26a;fill-opacity:1;stroke-width:0.0921043"
         d="m -26.427466,27.100254 -0.07617,-1.701145 1.73923,0.875962 -0.02539,-0.291986 -1.802703,-0.926742 0.06348,-0.330074 1.675751,0.914047 -0.05078,-0.355461 -1.663056,-0.799793 v -0.342765 l 1.655157,0.955604 V 24.713574 L -26.57367,23.75419 v -0.246649 l 1.591948,0.919108 v -0.335136 l -1.566487,-0.90441 v -0.174674 l 1.545366,0.892218 v -0.44789 l -1.576977,-0.787094 0.01269,-0.228512 1.472633,0.7744 -0.01269,-0.241207 -1.485329,-0.736315 0.02539,-0.228512 1.434544,0.749011 v -0.228513 l -1.561492,-0.825183 0.126948,-0.126948 1.383765,0.710924 v -0.266596 l -1.498023,-0.749013 0.03809,-0.228512 1.421853,0.749014 -0.02539,-0.253902 -1.345681,-0.64745 v -0.253902 l 1.294901,0.660141 -0.01269,-0.279291 -1.33299,-0.64745 0.05079,-0.241207 1.256811,0.672841 v -0.228512 l -1.206036,-0.622061 -0.01269,-0.177728 1.269507,0.583972 0.863267,6.284079 0.215816,-0.02538 -0.05078,-0.609367 0.126949,0.01269 0.101564,0.583972 0.152341,-0.02538 -0.08887,-0.749009 -0.393548,-0.01269 -0.342765,-1.942352 1.510713,1.840792 0.901355,0.317376 -0.406243,0.02539 c 0,0 -0.31738,0.228512 -0.507807,0.139648 -0.190427,-0.08887 -0.0127,0.241203 -0.0127,0.241203 l 0.330074,0.482416 0.418935,0.520499 -0.203122,0.152337 z"
         id="path3-1-8" />
      <path
         style="fill:#fee26a;fill-opacity:1;stroke-width:0.244098"
         id="path4-1-4"
         sodipodi:type="arc"
         sodipodi:cx="32.547222"
         sodipodi:cy="-12.646888"
         sodipodi:rx="0.83603072"
         sodipodi:ry="0.63565898"
         sodipodi:start="6.1608311"
         sodipodi:end="3.8366656"
         sodipodi:arc-type="slice"
         d="m 33.377003,-12.724469 a 0.83603072,0.63565898 0 0 1 -0.524751,0.669421 0.83603072,0.63565898 0 0 1 -0.983215,-0.220124 0.83603072,0.63565898 0 0 1 0.03611,-0.778818 l 0.642077,0.407102 z"
         transform="matrix(-0.96705252,0.25457695,-0.38878543,-0.92132833,0,0)" />
      <path
         style="fill:#fee26a;fill-opacity:1;stroke-width:0.0921043"
         d="m -33.3375,28.533948 c 0,0 7.925715,-1.909232 14.398774,0.179533 0,0 -6.473059,-3.730726 -14.398774,-0.179533 z"
         id="path11-6-3"
         sodipodi:nodetypes="ccc" />
    </g>
  </g>
</svg>
